<svg width="24" height="24" viewBox="0 0 24 24" fill="none" xmlns="http://www.w3.org/2000/svg" class="injected-svg fill-current" data-src="https://secure.meetupstatic.com/next/images/design-system-icons/menu-outline.svg" xmlns:xlink="http://www.w3.org/1999/xlink" style="width:28px;height:28px"><title>icon</title>
<path fill-rule="evenodd" clip-rule="evenodd" d="M4 7.25C4 6.83579 4.33579 6.5 4.75 6.5H19.25C19.6642 6.5 20 6.83579 20 7.25C20 7.66421 19.6642 8 19.25 8H4.75C4.33579 8 4 7.66421 4 7.25ZM4 12.25C4 11.8358 4.33579 11.5 4.75 11.5H19.25C19.6642 11.5 20 11.8358 20 12.25C20 12.6642 19.6642 13 19.25 13H4.75C4.33579 13 4 12.6642 4 12.25ZM4.75 16.5C4.33579 16.5 4 16.8358 4 17.25C4 17.6642 4.33579 18 4.75 18H19.25C19.6642 18 20 17.6642 20 17.25C20 16.8358 19.6642 16.5 19.25 16.5H4.75Z"></path>
</svg>